<?xml version="1.0" standalone="no"?>
<!DOCTYPE svg PUBLIC "-//W3C//DTD SVG 20010904//EN"
 "http://www.w3.org/TR/2001/REC-SVG-20010904/DTD/svg10.dtd">
<svg version="1.0" xmlns="http://www.w3.org/2000/svg"
 width="310.000000pt" height="231.000000pt" viewBox="0 0 310.000000 231.000000"
 preserveAspectRatio="xMidYMid meet">
<metadata>
Created by potrace 1.14, written by Peter Selinger 2001-2017
</metadata>
<g transform="translate(0.000000,231.000000) scale(0.100000,-0.100000)"
fill="#F5FFFA" stroke="none">
<path d="M1600 2197 c0 -14 -3 -32 -6 -41 -4 -10 -1 -16 9 -16 13 0 15 8 10
38 -7 45 -13 54 -13 19z"/>
<path d="M1501 2175 c1 -32 14 -61 23 -47 4 6 0 24 -8 39 -13 23 -15 24 -15 8z"/>
<path d="M1691 2164 c-7 -17 -8 -31 -2 -37 5 -5 12 3 16 23 9 40 2 48 -14 14z"/>
<path d="M1410 2147 c0 -14 24 -57 32 -57 15 0 8 27 -12 45 -11 10 -20 15 -20
12z"/>
<path d="M1776 2128 c-18 -25 -20 -38 -8 -38 10 0 35 50 28 57 -2 2 -11 -6
-20 -19z"/>
<path d="M1338 2072 c13 -17 28 -32 33 -32 19 0 8 19 -23 42 l-33 23 23 -33z"/>
<path d="M1523 2086 c-62 -20 -109 -52 -143 -99 -38 -51 -63 -135 -58 -189 l4
-40 -168 -163 c-171 -166 -198 -205 -143 -205 13 0 88 11 167 25 256 44 339
50 608 47 140 -1 280 -3 310 -5 44 -2 55 1 58 15 2 9 -54 87 -132 184 -75 92
-136 175 -136 185 0 33 -37 117 -69 158 -62 78 -201 119 -298 87z m142 -57
c25 -6 61 -26 82 -46 21 -19 33 -32 27 -29 -13 7 -39 -12 -147 -106 -42 -37
-81 -68 -85 -68 -4 0 -26 18 -47 40 -21 22 -43 40 -49 40 -5 0 -20 -10 -33
-22 -32 -30 -37 -18 -19 45 12 43 26 64 61 95 64 56 127 72 210 51z m248 -330
l147 -180 -137 7 -138 6 -97 96 c-54 53 -98 100 -98 103 0 7 162 149 170 148
3 0 71 -81 153 -180z m-365 -176 c-84 -7 -211 -21 -281 -33 -71 -11 -133 -20
-139 -20 -5 0 63 72 153 159 l164 159 128 -126 127 -127 -152 -12z"/>
<path d="M1858 2079 c-28 -21 -36 -39 -19 -39 5 0 19 14 31 30 25 35 24 36
-12 9z"/>
<path d="M1285 1990 c18 -20 45 -27 45 -12 0 8 -43 32 -57 32 -3 0 2 -9 12
-20z"/>
<path d="M1903 1998 c-13 -6 -23 -15 -23 -20 0 -15 27 -8 45 12 20 22 12 25
-22 8z"/>
<path d="M1253 1904 c15 -8 33 -12 39 -8 14 9 -15 22 -47 23 -16 0 -15 -2 8
-15z"/>
<path d="M1930 1911 c-16 -5 -21 -9 -13 -14 7 -5 25 -1 40 7 29 16 16 19 -27
7z"/>
<path d="M1230 1820 c-19 -4 -28 -8 -19 -9 9 0 31 -4 48 -7 24 -5 31 -3 31 10
0 17 -5 18 -60 6z"/>
<path d="M1920 1814 c0 -12 6 -15 23 -10 12 3 33 6 46 6 35 0 23 6 -26 14 -36
5 -43 3 -43 -10z"/>
<path d="M1505 1219 c-128 -11 -165 -18 -165 -30 0 -15 69 -41 91 -34 17 6 19
1 19 -35 0 -38 -32 -369 -61 -629 -14 -124 -10 -132 66 -122 l50 6 7 195 c7
202 52 573 71 598 22 28 25 -25 19 -298 -10 -391 -6 -519 16 -543 25 -28 60
-39 83 -26 20 10 20 18 14 212 -3 111 -2 258 2 327 l8 125 38 -110 c21 -60 51
-155 66 -210 14 -55 35 -114 45 -131 10 -17 30 -62 45 -100 15 -38 33 -70 41
-72 8 -1 28 9 43 24 25 23 27 30 21 71 -7 48 16 593 25 593 3 0 17 -21 30 -47
13 -27 37 -74 53 -106 35 -67 35 -78 24 -357 -10 -232 -11 -229 67 -237 28 -3
49 0 62 10 18 14 20 31 26 229 4 166 9 219 21 241 10 18 14 43 11 70 -4 38 -1
45 30 76 l36 34 -2 -303 -2 -302 24 -19 c13 -10 38 -19 56 -19 42 0 42 1 34
190 -7 163 1 475 11 463 11 -13 97 -273 111 -333 6 -30 21 -73 33 -95 11 -22
32 -69 46 -104 32 -82 50 -94 86 -58 24 25 26 32 20 80 -3 30 -2 123 3 208 23
374 24 458 7 484 -23 34 -83 36 -90 3 -3 -13 -8 -124 -11 -248 -4 -124 -10
-243 -14 -265 l-7 -40 -13 45 c-8 25 -44 144 -81 265 -65 208 -68 221 -52 239
9 10 30 25 46 33 15 8 24 18 20 23 -14 12 -88 20 -103 11 -8 -5 -25 -3 -42 6
-16 8 -39 13 -51 11 -22 -3 -23 -8 -26 -87 -3 -78 -5 -88 -37 -130 -56 -77
-69 -85 -104 -70 -24 11 -35 26 -47 61 -8 26 -26 56 -40 67 -13 10 -24 26 -24
35 0 23 -44 90 -76 115 -21 17 -39 21 -73 19 -44 -3 -46 -4 -44 -32 1 -17 -4
-34 -13 -41 -13 -9 -17 -54 -24 -260 -5 -138 -9 -263 -10 -278 0 -36 -16 -26
-25 16 -12 54 -156 510 -171 538 -12 25 -79 61 -107 58 -6 -1 -57 -6 -112 -10z
m655 -190 c0 -5 -4 -9 -10 -9 -5 0 -10 7 -10 16 0 8 5 12 10 9 6 -3 10 -10 10
-16z"/>
<path d="M336 1201 c-3 -5 -6 -103 -5 -217 0 -115 -4 -252 -11 -304 -6 -52
-11 -124 -10 -160 0 -36 -3 -84 -6 -106 -7 -53 7 -80 53 -99 47 -20 70 -19 81
3 6 10 5 76 0 160 -6 79 -7 146 -4 150 4 3 21 -5 39 -18 74 -56 215 -149 256
-170 24 -12 58 -38 76 -57 23 -25 45 -38 76 -43 66 -13 85 4 98 87 52 330 84
484 97 470 3 -3 9 -85 14 -184 7 -137 14 -194 30 -248 31 -99 46 -123 86 -143
34 -16 37 -16 50 2 12 17 11 23 -5 50 -44 75 -55 157 -56 414 0 205 -2 244
-15 252 -19 12 -61 12 -79 1 -15 -9 -51 -107 -137 -371 l-48 -145 -8 70 c-5
39 -7 86 -4 105 16 120 35 313 36 361 0 84 35 107 112 75 35 -15 66 -7 54 13
-9 14 -90 38 -160 46 -47 6 -60 4 -76 -10 -50 -45 -85 -232 -97 -512 -3 -84
-8 -153 -9 -153 -2 0 -37 22 -77 48 -41 27 -104 66 -140 87 l-67 39 63 65 c77
80 180 232 198 289 11 37 10 44 -6 62 -11 13 -29 20 -43 18 -19 -2 -30 -19
-61 -94 -21 -50 -49 -112 -64 -136 -28 -49 -94 -131 -108 -136 -5 -2 -8 83 -6
196 2 200 2 200 -22 226 -25 26 -83 37 -95 17z"/>
<path d="M1361 329 c-50 -10 -56 -13 -46 -29 5 -7 17 -9 34 -5 14 4 59 10 100
14 46 4 76 11 79 19 4 14 -96 15 -167 1z"/>
</g>
</svg>
